<svg xmlns="http://www.w3.org/2000/svg" width="150" height="30" viewBox="0 0 150 30">
  <defs>
    <style>
      .cls-1 {
        fill: #314584;
      }

      .cls-2 {
        fill: #fff;
        fill-rule: evenodd;
      }
    </style>
  </defs>
  <rect id="Retângulo_1" data-name="Retângulo 1" class="cls-1" width="150" height="30"/>
  <path id="Monitora." class="cls-2" d="M21.172,3.74L17.464,15.872l-1.368,5H16.024l-1.332-5.04L10.948,3.74H2.128V27.5H7.636V16.592L7.456,9.284H7.528L13.4,27.5h5L24.268,9.284H24.34l-0.18,7.308V27.5h5.472V3.74h-8.46Zm14.292,6.5a7.955,7.955,0,0,0-3.366,3.2A10.015,10.015,0,0,0,30.892,18.5,10.013,10.013,0,0,0,32.1,23.558a7.951,7.951,0,0,0,3.366,3.2,10.727,10.727,0,0,0,4.932,1.1,10.784,10.784,0,0,0,4.986-1.1,7.982,7.982,0,0,0,3.348-3.2A10.019,10.019,0,0,0,49.936,18.5a10.021,10.021,0,0,0-1.206-5.058,7.986,7.986,0,0,0-3.348-3.2A10.791,10.791,0,0,0,40.4,9.14,10.734,10.734,0,0,0,35.464,10.238ZM42.232,14a3.12,3.12,0,0,1,1.152,1.62,8.772,8.772,0,0,1,.4,2.88,8.6,8.6,0,0,1-.4,2.862,3.215,3.215,0,0,1-1.152,1.62A3.151,3.151,0,0,1,40.4,23.5a3.087,3.087,0,0,1-1.8-.522,3.211,3.211,0,0,1-1.152-1.62,8.587,8.587,0,0,1-.4-2.862,8.756,8.756,0,0,1,.4-2.88A3.117,3.117,0,0,1,38.6,14a3.17,3.17,0,0,1,1.8-.5A3.236,3.236,0,0,1,42.232,14Zm14.76,13.5V17.96a5.635,5.635,0,0,1,.432-2.412,2.84,2.84,0,0,1,1.188-1.314,3.325,3.325,0,0,1,1.62-.414,2.489,2.489,0,0,1,1.836.72,3.641,3.641,0,0,1,.72,2.592V27.5h6.12V15.512a7.11,7.11,0,0,0-.792-3.528A5.235,5.235,0,0,0,65.938,9.86a6.98,6.98,0,0,0-3.258-.72,7.1,7.1,0,0,0-3.114.666,5.947,5.947,0,0,0-2.3,1.962,8.077,8.077,0,0,0-1.278,3.24l0.684,0.684L56.344,9.5H50.872v18h6.12ZM76.432,6.71A2.687,2.687,0,0,0,77.3,4.5a2.733,2.733,0,0,0-.864-2.25,5.578,5.578,0,0,0-5.418,0,2.762,2.762,0,0,0-.846,2.25,2.715,2.715,0,0,0,.846,2.214A5.578,5.578,0,0,0,76.432,6.71ZM70.672,9.5v18h6.12V9.5h-6.12Zm9.359-4.032V22.1a6.322,6.322,0,0,0,.846,3.348,4.628,4.628,0,0,0,2.3,1.836,9.857,9.857,0,0,0,3.546.576,11.01,11.01,0,0,0,2.808-.36A6.821,6.821,0,0,0,91.8,26.492l-0.648-3.78a3.525,3.525,0,0,1-1.134.594,5,5,0,0,1-1.494.2,2.54,2.54,0,0,1-1.746-.558,2.368,2.368,0,0,1-.63-1.854V3.776ZM76.935,9.5v4.356h14.58V9.5H76.935Zm18.54,0.738a7.955,7.955,0,0,0-3.366,3.2A10.016,10.016,0,0,0,90.9,18.5a10.014,10.014,0,0,0,1.206,5.058,7.951,7.951,0,0,0,3.366,3.2,11.747,11.747,0,0,0,9.918,0,7.977,7.977,0,0,0,3.348-3.2,10.017,10.017,0,0,0,1.206-5.058,10.019,10.019,0,0,0-1.206-5.058,7.981,7.981,0,0,0-3.348-3.2A11.747,11.747,0,0,0,95.475,10.238ZM102.243,14a3.118,3.118,0,0,1,1.152,1.62,8.767,8.767,0,0,1,.4,2.88,8.6,8.6,0,0,1-.4,2.862,3.212,3.212,0,0,1-1.152,1.62,3.151,3.151,0,0,1-1.836.522,3.087,3.087,0,0,1-1.8-.522,3.211,3.211,0,0,1-1.152-1.62,8.59,8.59,0,0,1-.4-2.862,8.759,8.759,0,0,1,.4-2.88A3.117,3.117,0,0,1,98.607,14a3.17,3.17,0,0,1,1.8-.5A3.236,3.236,0,0,1,102.243,14ZM117,27.5V18.428a4.407,4.407,0,0,1,.558-2.322,3.612,3.612,0,0,1,1.494-1.386,4.451,4.451,0,0,1,2.016-.468,8.688,8.688,0,0,1,1.35.09,4.444,4.444,0,0,1,.918.234l0.612-5.04a2.5,2.5,0,0,0-.774-0.288,5.471,5.471,0,0,0-1.17-.108,5.218,5.218,0,0,0-3.438,1.116,6.765,6.765,0,0,0-2.034,3.132L116.283,9.5h-5.4v18H117Zm16.668-6.66a3.411,3.411,0,0,1-.252,1.368,2.663,2.663,0,0,1-.684.954,2.782,2.782,0,0,1-.99.558,3.78,3.78,0,0,1-1.17.18,2.35,2.35,0,0,1-1.368-.4,1.345,1.345,0,0,1-.576-1.188,1.49,1.49,0,0,1,.522-1.242,3.8,3.8,0,0,1,1.6-.63l3.456-.72,0.036-3.24-6.8,1.4a6.629,6.629,0,0,0-3.69,1.782,4.589,4.589,0,0,0-1.17,3.222,4.764,4.764,0,0,0,.738,2.718,4.6,4.6,0,0,0,2.106,1.674,8.22,8.22,0,0,0,3.2.576,9.25,9.25,0,0,0,3.042-.5,5.465,5.465,0,0,0,2.376-1.548,3.783,3.783,0,0,0,.918-2.592l-0.684.252v0.216a4.094,4.094,0,0,0,.612,2.322,3.677,3.677,0,0,0,1.692,1.368,6.418,6.418,0,0,0,2.484.45,6.191,6.191,0,0,0,2.628-.5l0.36-3.492a3.12,3.12,0,0,1-1.044.144,1.181,1.181,0,0,1-1.26-1.4V15.98a6.784,6.784,0,0,0-.99-3.762,6.067,6.067,0,0,0-2.844-2.3,11.632,11.632,0,0,0-4.482-.774,10.319,10.319,0,0,0-6.084,1.548,6.436,6.436,0,0,0-2.664,4.14l5.184,1.224a3.291,3.291,0,0,1,1.17-2.106,3.447,3.447,0,0,1,2.034-.594,2.487,2.487,0,0,1,1.89.738,2.78,2.78,0,0,1,.7,2V20.84Zm9.323,1.332a3.06,3.06,0,0,0-.972,2.412,3.016,3.016,0,0,0,.972,2.376,4.456,4.456,0,0,0,5.274,0,3.044,3.044,0,0,0,.954-2.376,3.089,3.089,0,0,0-.954-2.412A4.456,4.456,0,0,0,142.994,22.172Z"/>
</svg>
